<svg width="1600" height="1080" viewBox="0 0 1600 1080" fill="none" xmlns="http://www.w3.org/2000/svg">
  <rect width="1600" height="1080" fill="#071015"/>
  <rect x="68" y="60" width="1464" height="960" stroke="rgba(255,255,255,0.12)"/>
  <rect x="144" y="138" width="1312" height="804" rx="28" fill="#0B161D" stroke="rgba(255,255,255,0.14)"/>
  <circle cx="1212" cy="246" r="138" fill="url(#paint0_radial_2_2)"/>
  <circle cx="386" cy="812" r="176" fill="url(#paint1_radial_2_2)" fill-opacity="0.64"/>
  <rect x="222" y="232" width="306" height="520" rx="20" fill="#101F28" stroke="rgba(255,255,255,0.1)"/>
  <rect x="570" y="232" width="642" height="102" rx="20" fill="#0D1B22" stroke="rgba(255,255,255,0.1)"/>
  <rect x="570" y="366" width="642" height="386" rx="20" fill="#0D1B22" stroke="rgba(255,255,255,0.1)"/>
  <rect x="570" y="784" width="306" height="92" rx="20" fill="#0D1B22" stroke="rgba(255,255,255,0.1)"/>
  <rect x="906" y="784" width="306" height="92" rx="20" fill="#0D1B22" stroke="rgba(255,255,255,0.1)"/>
  <path d="M260 298H454" stroke="#E7F0F5" stroke-opacity="0.86" stroke-width="3"/>
  <path d="M260 336H402" stroke="#E7F0F5" stroke-opacity="0.32" stroke-width="3"/>
  <path d="M260 448H464" stroke="#69BAC7" stroke-opacity="0.72" stroke-width="3"/>
  <path d="M260 492H420" stroke="#E7F0F5" stroke-opacity="0.28" stroke-width="3"/>
  <path d="M610 274H888" stroke="#E7F0F5" stroke-opacity="0.92" stroke-width="3"/>
  <path d="M610 304H760" stroke="#E7F0F5" stroke-opacity="0.3" stroke-width="3"/>
  <path d="M610 426C682 396.667 754 396.667 826 426C898 455.333 970 455.333 1042 426C1114 396.667 1186 396.667 1258 426" stroke="#69BAC7" stroke-width="4"/>
  <path d="M610 490H1178" stroke="#E7F0F5" stroke-opacity="0.18" stroke-width="2"/>
  <path d="M610 542H1122" stroke="#E7F0F5" stroke-opacity="0.18" stroke-width="2"/>
  <path d="M610 594H1034" stroke="#E7F0F5" stroke-opacity="0.18" stroke-width="2"/>
  <path d="M610 846H806" stroke="#DEBA69" stroke-opacity="0.82" stroke-width="3"/>
  <path d="M944 846H1118" stroke="#69BAC7" stroke-opacity="0.82" stroke-width="3"/>
  <path d="M610 878H726" stroke="#E7F0F5" stroke-opacity="0.24" stroke-width="3"/>
  <path d="M944 878H1052" stroke="#E7F0F5" stroke-opacity="0.24" stroke-width="3"/>
  <path d="M144 118H290" stroke="#E7F0F5" stroke-opacity="0.52" stroke-width="2"/>
  <path d="M1252 910H1384" stroke="#69BAC7" stroke-opacity="0.5" stroke-width="2"/>
  <defs>
    <radialGradient id="paint0_radial_2_2" cx="0" cy="0" r="1" gradientUnits="userSpaceOnUse" gradientTransform="translate(1212 246) rotate(90) scale(138)">
      <stop stop-color="#69BAC7"/>
      <stop offset="1" stop-color="#69BAC7" stop-opacity="0"/>
    </radialGradient>
    <radialGradient id="paint1_radial_2_2" cx="0" cy="0" r="1" gradientUnits="userSpaceOnUse" gradientTransform="translate(386 812) rotate(90) scale(176)">
      <stop stop-color="#DEBA69"/>
      <stop offset="1" stop-color="#DEBA69" stop-opacity="0"/>
    </radialGradient>
  </defs>
</svg>
